# xmcd
#
# Track frame offsets: 
#        150
#        13623
#        27513
#        42449
#        54881
#        67938
#        79979
#        93007
#        108290
#        121291
#        134403
#        147863
#        161256
#        174231
#        187317
#        200036
#        213290
#        227102
#        240928
#        254398
#        267582
#        282133
#        294662
#        308885
#
# Disc length: 4299 seconds
#
# Revision: 0
# Processed by: cddbd v1.5.2PL0 Copyright (c) Steve Scherf et al.
# Submitted via: ExactAudioCopy v1.0b3
#
DISCID=5610c918
DTITLE=Various Artist - The Johnson City Sessions
DYEAR=1900
DGENRE=Country
TTITLE0=Weaver Brothers - You Came Back To Me
TTITLE1=Weaver Brothers - Prison Sorrows
TTITLE2=Byrd Moore and His Hot Shots - Frankie Silvers
TTITLE3=Byrd Moore and His Hot Shots - The Hills Of Tennessee
TTITLE4=Byrd Moore and His Hot Shots - Careless Love
TTITLE5=Byrd Moore and His Hot Shots - Three Men Went A Hunting
TTITLE6=Bateman Sacred Quartet - Nothing Like Old Time Religion
TTITLE7=Bateman Sacred Quartet - Some Day
TTITLE8=Fred Richards - My Katie
TTITLE9=Fred Richards - Danville Blues
TTITLE10=Clarence Ashley - Dark Holler Blues
TTITLE11=Clarence Ashley - The Coo-Coo Bird
TTITLE12=Clarence Ashley - Little Sadie
TTITLE13=Clarence Ashley - Naomi Wise
TTITLE14=The Bentley Boys - Down On Penny's Farm
TTITLE15=The Bentley Boys - Henhouse Blues
TTITLE16=Bowman Sisters - Railroad Take Me Back
TTITLE17=Bowman Sisters - Old Lonesome Blues
TTITLE18=Ephraim Woodie and the Henpecked Husbands - Last Gold Dollar
TTITLE19=Ephraim Woodie and the Henpecked Husbands - The Fatal Courtsh
TTITLE19=ip
TTITLE20=Ira and Eugene Yates - Powder And Paint
TTITLE21=Ira and Eugene Yates - Sarah Jane
TTITLE22=Ellis Williams - Buttermilk Blues
TTITLE23=Ellis Williams - Smokey Blues
EXTD=
EXTT0=
EXTT1=
EXTT2=
EXTT3=
EXTT4=
EXTT5=
EXTT6=
EXTT7=
EXTT8=
EXTT9=
EXTT10=
EXTT11=
EXTT12=
EXTT13=
EXTT14=
EXTT15=
EXTT16=
EXTT17=
EXTT18=
EXTT19=
EXTT20=
EXTT21=
EXTT22=
EXTT23=
PLAYORDER=
